<?xml version="1.0" encoding="UTF-8"?>
<svg width="400" height="300" viewBox="0 0 400 300" xmlns="http://www.w3.org/2000/svg">
  <rect width="400" height="300" fill="#f8f9fa"/>
  
  <!-- Background elements -->
  <rect x="50" y="50" width="300" height="200" rx="10" ry="10" fill="white" stroke="#ddd" stroke-width="1"/>
  
  <!-- Title -->
  <text x="200" y="35" font-family="Arial, sans-serif" font-size="16" text-anchor="middle" font-weight="bold" fill="#333">Momentum Theorem</text>
  
  <!-- Scene background - sky gradient -->
  <defs>
    <linearGradient id="sky" x1="0%" y1="0%" x2="0%" y2="100%">
      <stop offset="0%" stop-color="#a7d9ff"/>
      <stop offset="100%" stop-color="#e6f5ff"/>
    </linearGradient>
    <linearGradient id="snow" x1="0%" y1="0%" x2="0%" y2="100%">
      <stop offset="0%" stop-color="#ffffff"/>
      <stop offset="100%" stop-color="#f0f8ff"/>
    </linearGradient>
    <!-- For the snowball rotation -->
    <pattern id="snowballPattern" width="40" height="40" patternUnits="userSpaceOnUse">
      <circle cx="10" cy="10" r="2" fill="#e0e0e0"/>
      <circle cx="25" cy="15" r="3" fill="#e0e0e0"/>
      <circle cx="15" cy="25" r="2.5" fill="#e0e0e0"/>
      <circle cx="30" cy="30" r="2" fill="#e0e0e0"/>
    </pattern>
  </defs>
  
  <!-- Sky -->
  <rect x="75" y="75" width="250" height="150" fill="url(#sky)" rx="5" ry="5"/>
  
  <!-- Hills -->
  <path d="M75,225 C100,170 150,150 200,180 C250,210 300,200 325,225 Z" fill="url(#snow)" stroke="#ffffff" stroke-width="1"/>
  <path d="M75,225 C120,210 180,220 220,215 C260,210 290,200 325,225 Z" fill="#f0f8ff" stroke="#ffffff" stroke-width="1"/>
  
  <!-- Trees (simplified) -->
  <g transform="translate(90, 175)">
    <rect x="-5" y="0" width="10" height="15" fill="#8B4513"/>
    <polygon points="0,-20 -15,0 15,0" fill="#228B22"/>
    <polygon points="0,-35 -12,-15 12,-15" fill="#228B22"/>
    <polygon points="0,-45 -8,-30 8,-30" fill="#228B22"/>
  </g>
  
  <g transform="translate(310, 190)">
    <rect x="-4" y="0" width="8" height="12" fill="#8B4513"/>
    <polygon points="0,-18 -12,0 12,0" fill="#228B22"/>
    <polygon points="0,-30 -9,-12 9,-12" fill="#228B22"/>
  </g>
  
  <!-- Formula -->
  <g transform="translate(200, 100)">
    <rect x="-50" y="-15" width="100" height="30" rx="5" ry="5" fill="white" opacity="0.7" stroke="#47b2e4" stroke-width="1"/>
    <text x="0" y="5" font-family="Arial, sans-serif" font-size="14" text-anchor="middle" fill="#37517e">p = m·v</text>
  </g>
  
  <!-- Path for the snowball motion -->
  <path id="motionPath" d="M125,120 C150,130 175,150 200,180 C225,210 250,220 290,220" fill="none" stroke="none"/>
  
  <!-- Rolling Snowball -->
  <g>
    <animateMotion
        path="M125,120 C150,130 175,150 200,180 C225,210 250,220 290,220"
        begin="0s" dur="4s" repeatCount="indefinite"
        calcMode="linear" 
        keyPoints="0;1" 
        keyTimes="0;1">
    </animateMotion>
    
    <!-- Snowball -->
    <g>
      <circle cx="0" cy="0" r="15" fill="white" stroke="#e0e0e0" stroke-width="1">
        <animateTransform
            attributeName="transform"
            type="rotate"
            from="0"
            to="360"
            begin="0s"
            dur="1s"
            repeatCount="indefinite"/>
      </circle>
      
      <!-- Details on the snowball to show it's rotating -->
      <circle cx="0" cy="0" r="15" fill="url(#snowballPattern)" opacity="0.6">
        <animateTransform
            attributeName="transform"
            type="rotate"
            from="0"
            to="360"
            begin="0s"
            dur="1s"
            repeatCount="indefinite"/>
      </circle>
    </g>
    
    <!-- Velocity Vector -->
    <g>
      <line x1="0" y1="0" x2="25" y2="0" stroke="#47b2e4" stroke-width="2" marker-end="url(#arrowhead)">
        <animate attributeName="x2" values="5;10;15;20;25;30;35" begin="0s" dur="4s" repeatCount="indefinite"/>
      </line>
      <text x="15" y="-5" font-family="Arial, sans-serif" font-size="8" fill="#37517e">velocity</text>
    </g>
  </g>
  
  <!-- Arrow marker definition -->
  <defs>
    <marker id="arrowhead" markerWidth="10" markerHeight="7" refX="10" refY="3.5" orient="auto">
      <polygon points="0 0, 10 3.5, 0 7" fill="#47b2e4"/>
    </marker>
  </defs>
  
  <!-- Mass/Size Animation -->
  <g transform="translate(125, 120)">
    <text x="0" y="-20" font-family="Arial, sans-serif" font-size="10" text-anchor="middle" fill="#333">Mass increases →</text>
    <circle cx="0" cy="0" r="5" fill="#fafafa" stroke="#ccc">
      <animate attributeName="opacity" values="1;0;0;0;1" dur="4s" repeatCount="indefinite"/>
    </circle>
    <circle cx="0" cy="0" r="10" fill="#fafafa" stroke="#ccc">
      <animate attributeName="opacity" values="0;1;0;0;0" dur="4s" repeatCount="indefinite"/>
    </circle>
    <circle cx="0" cy="0" r="15" fill="#fafafa" stroke="#ccc">
      <animate attributeName="opacity" values="0;0;1;0;0" dur="4s" repeatCount="indefinite"/>
    </circle>
    <circle cx="0" cy="0" r="20" fill="#fafafa" stroke="#ccc">
      <animate attributeName="opacity" values="0;0;0;1;0" dur="4s" repeatCount="indefinite"/>
    </circle>
  </g>
  
  <!-- Small cloud -->
  <g transform="translate(100, 90)">
    <ellipse cx="0" cy="0" rx="15" ry="10" fill="white" opacity="0.8"/>
    <ellipse cx="10" cy="-5" rx="15" ry="12" fill="white" opacity="0.8"/>
    <ellipse cx="20" cy="0" rx="15" ry="10" fill="white" opacity="0.8"/>
    <animateTransform
        attributeName="transform"
        type="translate"
        from="100 90"
        to="115 90"
        begin="0s"
        dur="8s"
        repeatCount="indefinite"
        additive="sum"/>
  </g>
  
  <!-- Larger cloud -->
  <g transform="translate(270, 100)">
    <ellipse cx="0" cy="0" rx="20" ry="12" fill="white" opacity="0.7"/>
    <ellipse cx="15" cy="-7" rx="20" ry="15" fill="white" opacity="0.7"/>
    <ellipse cx="30" cy="-2" rx="20" ry="12" fill="white" opacity="0.7"/>
    <animateTransform
        attributeName="transform"
        type="translate"
        from="270 100"
        to="250 100"
        begin="0s"
        dur="12s"
        repeatCount="indefinite"
        additive="sum"/>
  </g>
  
  <!-- Labels -->
  <text x="290" y="240" font-family="Arial, sans-serif" font-size="10" text-anchor="middle" fill="#37517e">p = momentum</text>
  <text x="150" y="240" font-family="Arial, sans-serif" font-size="10" text-anchor="middle" fill="#37517e">m = mass</text>
  <text x="220" y="240" font-family="Arial, sans-serif" font-size="10" text-anchor="middle" fill="#37517e">v = velocity</text>
</svg> 