<?xml version="1.0" encoding="UTF-8"?>
<svg width="600" height="500" viewBox="0 0 600 500" xmlns="http://www.w3.org/2000/svg">
  <defs>
    <linearGradient id="tech-gradient" x1="0%" y1="0%" x2="100%" y2="100%">
      <stop offset="0%" stop-color="#47b2e4" stop-opacity="0.2"/>
      <stop offset="100%" stop-color="#37517e" stop-opacity="0.2"/>
    </linearGradient>
    <filter id="shadow" x="-20%" y="-20%" width="140%" height="140%">
      <feDropShadow dx="0" dy="10" stdDeviation="10" flood-color="#0002"/>
    </filter>
  </defs>
  
  <!-- Background Elements -->
  <rect width="600" height="500" fill="transparent"/>
  
  <!-- Digital Background Pattern -->
  <g opacity="0.4">
    <!-- Circuit Lines -->
    <path d="M50,100 L550,100" stroke="#47b2e4" stroke-width="1" stroke-dasharray="15,10"/>
    <path d="M50,200 L550,200" stroke="#47b2e4" stroke-width="1" stroke-dasharray="15,10"/>
    <path d="M50,300 L550,300" stroke="#47b2e4" stroke-width="1" stroke-dasharray="15,10"/>
    <path d="M50,400 L550,400" stroke="#47b2e4" stroke-width="1" stroke-dasharray="15,10"/>
    
    <path d="M100,50 L100,450" stroke="#47b2e4" stroke-width="1" stroke-dasharray="15,10"/>
    <path d="M200,50 L200,450" stroke="#47b2e4" stroke-width="1" stroke-dasharray="15,10"/>
    <path d="M300,50 L300,450" stroke="#47b2e4" stroke-width="1" stroke-dasharray="15,10"/>
    <path d="M400,50 L400,450" stroke="#47b2e4" stroke-width="1" stroke-dasharray="15,10"/>
    <path d="M500,50 L500,450" stroke="#47b2e4" stroke-width="1" stroke-dasharray="15,10"/>
    
    <!-- Connection Points -->
    <circle cx="100" cy="100" r="5" fill="#47b2e4"/>
    <circle cx="200" cy="200" r="5" fill="#47b2e4"/>
    <circle cx="300" cy="300" r="5" fill="#47b2e4"/>
    <circle cx="400" cy="200" r="5" fill="#47b2e4"/>
    <circle cx="500" cy="100" r="5" fill="#47b2e4"/>
    <circle cx="100" cy="400" r="5" fill="#47b2e4"/>
    <circle cx="500" cy="400" r="5" fill="#47b2e4"/>
  </g>
  
  <!-- Main OWL Illustration -->
  <g transform="translate(300, 250)" filter="url(#shadow)">
    <!-- Main Circle -->
    <circle cx="0" cy="0" r="150" fill="url(#tech-gradient)" stroke="#47b2e4" stroke-width="3"/>
    
    <!-- OWL Logo (Large) -->
    <g>
      <!-- Owl Body -->
      <circle cx="0" cy="0" r="100" fill="#47b2e4"/>
      
      <!-- Owl Eyes -->
      <circle cx="-35" cy="-20" r="30" fill="white"/>
      <circle cx="35" cy="-20" r="30" fill="white"/>
      
      <!-- Owl Pupils -->
      <circle cx="-35" cy="-20" r="15" fill="#37517e"/>
      <circle cx="35" cy="-20" r="15" fill="#37517e"/>
      <circle cx="-38" cy="-23" r="5" fill="white"/>
      <circle cx="32" cy="-23" r="5" fill="white"/>
      
      <!-- Owl Beak -->
      <polygon points="0,30 -15,15 15,15" fill="#ff9900"/>
      
      <!-- Owl Ears/Horns -->
      <polygon points="-70,-70 -50,-30 -90,-30" fill="#47b2e4"/>
      <polygon points="70,-70 90,-30 50,-30" fill="#47b2e4"/>
    </g>
    
    <!-- Task Icons -->
    <g>
      <!-- Code Document -->
      <g transform="translate(-75, 75) rotate(-15)">
        <rect x="-20" y="-25" width="40" height="50" rx="3" fill="white" stroke="#ddd"/>
        <line x1="-10" y1="-15" x2="10" y2="-15" stroke="#47b2e4" stroke-width="2"/>
        <line x1="-10" y1="-5" x2="15" y2="-5" stroke="#ddd" stroke-width="2"/>
        <line x1="-10" y1="5" x2="10" y2="5" stroke="#ddd" stroke-width="2"/>
        <line x1="-10" y1="15" x2="5" y2="15" stroke="#ddd" stroke-width="2"/>
      </g>
      
      <!-- Chart -->
      <g transform="translate(75, 75) rotate(15)">
        <rect x="-20" y="-25" width="40" height="50" rx="3" fill="white" stroke="#ddd"/>
        <line x1="-15" y1="20" x2="-15" y2="-15" stroke="#ddd" stroke-width="1"/>
        <rect x="-10" y="10" width="5" height="-5" fill="#47b2e4"/>
        <rect x="0" y="10" width="5" height="-15" fill="#47b2e4"/>
        <rect x="10" y="10" width="5" height="-25" fill="#47b2e4"/>
      </g>
    </g>
    
    <!-- Processing Animation Rings -->
    <circle cx="0" cy="0" r="125" fill="none" stroke="#47b2e4" stroke-width="1" stroke-dasharray="10,5">
      <animateTransform attributeName="transform" type="rotate" from="0 0 0" to="360 0 0" dur="60s" repeatCount="indefinite"/>
    </circle>
    
    <circle cx="0" cy="0" r="135" fill="none" stroke="#37517e" stroke-width="1" stroke-dasharray="15,10">
      <animateTransform attributeName="transform" type="rotate" from="360 0 0" to="0 0 0" dur="30s" repeatCount="indefinite"/>
    </circle>
  </g>
  
  <!-- Connecting Lines to tasks -->
  <g stroke="#47b2e4" stroke-width="2" stroke-dasharray="5,3" fill="none">
    <path d="M225,325 C200,375 150,400 125,425"/>
    <path d="M375,325 C400,375 450,400 475,425"/>
  </g>
  
  <!-- Smaller Tasks -->
  <g transform="translate(75, 425)">
    <rect x="-20" y="-20" width="40" height="40" rx="5" fill="white" stroke="#47b2e4" stroke-width="2"/>
    <text x="0" y="0" font-family="Arial, sans-serif" font-size="8" text-anchor="middle" dominant-baseline="middle" fill="#37517e">Task 1</text>
    <circle cx="15" cy="-15" r="8" fill="#4BB543"/>
    <path d="M10,-15 L14,-11 L20,-17" stroke="white" stroke-width="2" fill="none" stroke-linecap="round" stroke-linejoin="round"/>
  </g>
  
  <g transform="translate(525, 425)">
    <rect x="-20" y="-20" width="40" height="40" rx="5" fill="white" stroke="#47b2e4" stroke-width="2"/>
    <text x="0" y="0" font-family="Arial, sans-serif" font-size="8" text-anchor="middle" dominant-baseline="middle" fill="#37517e">Task 2</text>
    <circle cx="15" cy="-15" r="8" fill="#4BB543"/>
    <path d="M10,-15 L14,-11 L20,-17" stroke="white" stroke-width="2" fill="none" stroke-linecap="round" stroke-linejoin="round"/>
  </g>
</svg> 